<svg width="22" height="22" viewBox="0 0 22 22" fill="none" xmlns="http://www.w3.org/2000/svg">
<g clip-path="url(#clip0_73_95)">
<path d="M5.00001 9.00001C4.99997 8.00922 5.2453 7.03384 5.71409 6.16097C6.18287 5.2881 6.86051 4.5449 7.68651 3.99774C8.51251 3.45058 9.46115 3.11649 10.4477 3.02529C11.4343 2.93409 12.4281 3.08863 13.3404 3.47511C14.2527 3.86159 15.0551 4.46797 15.676 5.24012C16.2968 6.01227 16.7168 6.92615 16.8984 7.90015C17.08 8.87416 17.0175 9.87797 16.7166 10.822C16.4157 11.766 15.8858 12.6207 15.174 13.31C14.971 13.506 14.815 13.71 14.721 13.929L13.959 15.698C13.9203 15.7877 13.8563 15.864 13.7747 15.9177C13.6931 15.9714 13.5976 16 13.5 16H8.50001C8.4022 16.0002 8.30649 15.9717 8.22472 15.918C8.14296 15.8643 8.07874 15.7878 8.04001 15.698L7.27901 13.928C7.16925 13.6947 7.01542 13.4849 6.82601 13.31C6.24745 12.7513 5.78753 12.0817 5.47378 11.3411C5.16003 10.6005 4.99889 9.80429 5.00001 9.00001ZM8.00001 17.5C8.00001 17.3674 8.05268 17.2402 8.14645 17.1465C8.24022 17.0527 8.3674 17 8.50001 17H13.5C13.6326 17 13.7598 17.0527 13.8536 17.1465C13.9473 17.2402 14 17.3674 14 17.5C14 17.6326 13.9473 17.7598 13.8536 17.8536C13.7598 17.9473 13.6326 18 13.5 18L13.276 18.447C13.193 18.6131 13.0654 18.7528 12.9075 18.8505C12.7496 18.9481 12.5677 18.9999 12.382 19H9.61801C9.43234 18.9999 9.25038 18.9481 9.09248 18.8505C8.93458 18.7528 8.807 18.6131 8.72401 18.447L8.50001 18C8.3674 18 8.24022 17.9473 8.14645 17.8536C8.05268 17.7598 8.00001 17.6326 8.00001 17.5Z" fill="#FFF970"/>
</g>
<defs>
<clipPath id="clip0_73_95">
<rect width="16" height="16" fill="white" transform="translate(3 3)"/>
</clipPath>
</defs>
</svg>
