<svg width="45" height="45" viewBox="0 0 45 45" fill="none" xmlns="http://www.w3.org/2000/svg">
<g clip-path="url(#clip0_73_92)">
<path d="M12.952 19.152H8.092V36H4.924V19.152H1.54V17.676L4.924 16.596V15.48C4.924 13.824 5.164 12.48 5.644 11.448C6.148 10.416 6.868 9.66 7.804 9.18C8.74 8.7 9.868 8.46 11.188 8.46C11.956 8.46 12.652 8.532 13.276 8.676C13.924 8.796 14.476 8.94 14.932 9.108L14.104 11.592C13.72 11.472 13.276 11.352 12.772 11.232C12.268 11.112 11.752 11.052 11.224 11.052C10.168 11.052 9.376 11.412 8.848 12.132C8.344 12.828 8.092 13.932 8.092 15.444V16.704H12.952V19.152Z" fill="#FF6B6B"/>
<path d="M14.96 21.424C14.96 20.112 15.08 18.832 15.32 17.584C15.576 16.336 15.968 15.144 16.496 14.008C17.024 12.872 17.688 11.824 18.488 10.864H21.416C20.696 11.856 20.088 12.928 19.592 14.08C19.096 15.232 18.72 16.424 18.464 17.656C18.208 18.888 18.08 20.136 18.08 21.4C18.08 22.632 18.208 23.864 18.464 25.096C18.72 26.312 19.088 27.48 19.568 28.6C20.064 29.736 20.672 30.8 21.392 31.792H18.488C17.688 30.848 17.024 29.816 16.496 28.696C15.968 27.592 15.576 26.424 15.32 25.192C15.08 23.96 14.96 22.704 14.96 21.424ZM26.6928 21.304L22.4688 14.896H26.5248L29.0688 19.072L31.6368 14.896H35.6928L31.4208 21.304L35.8848 28H31.8288L29.0688 23.512L26.3088 28H22.2528L26.6928 21.304ZM43.1838 21.424C43.1838 22.704 43.0558 23.96 42.7998 25.192C42.5598 26.424 42.1758 27.592 41.6478 28.696C41.1358 29.816 40.4718 30.848 39.6558 31.792H36.7518C37.4718 30.8 38.0718 29.736 38.5518 28.6C39.0478 27.48 39.4238 26.312 39.6798 25.096C39.9358 23.864 40.0638 22.632 40.0638 21.4C40.0638 20.136 39.9358 18.888 39.6798 17.656C39.4238 16.424 39.0478 15.232 38.5518 14.08C38.0718 12.928 37.4638 11.856 36.7278 10.864H39.6558C40.4718 11.824 41.1358 12.872 41.6478 14.008C42.1758 15.144 42.5598 16.336 42.7998 17.584C43.0558 18.832 43.1838 20.112 43.1838 21.424Z" fill="#FF6B6B"/>
</g>
<defs>
<clipPath id="clip0_73_92">
<rect width="45" height="45" fill="white"/>
</clipPath>
</defs>
</svg>
