<svg width="14" height="14" viewBox="0 0 14 14" fill="none" xmlns="http://www.w3.org/2000/svg">
<path fill-rule="evenodd" clip-rule="evenodd" d="M11.5536 2.84646C11.3583 2.6512 11.0417 2.6512 10.8465 2.84646L4.91455 8.77837C4.82459 8.86833 4.75263 8.97462 4.70251 9.09156L3.54044 11.8031C3.4599 11.991 3.50189 12.209 3.64646 12.3536C3.79103 12.4981 4.00905 12.5401 4.19697 12.4596L6.90847 11.2975C7.0254 11.2474 7.1317 11.1754 7.22166 11.0855L13.1536 5.15357C13.3488 4.9583 13.3488 4.64172 13.1536 4.44646L11.5536 2.84646ZM5.62166 9.48548L11.2 3.90712L12.0929 4.80001L6.51455 10.3784L5.29923 10.8992L5.10081 10.7008L5.62166 9.48548Z" fill="#D1A4FF"/>
<path d="M2 2.5H8" stroke="#D1A4FF" stroke-width="0.8" stroke-linecap="round"/>
<path d="M2 5H7" stroke="#D1A4FF" stroke-width="0.8" stroke-linecap="round"/>
</svg>
